<?xml version="1.0" encoding="UTF-8" standalone="no"?>
<svg
   width="1000"
   height="300"
   viewBox="0 0 1000 300"
   version="1.1"
   id="svg3"
   sodipodi:docname="icon2.svg"
   inkscape:version="1.4 (e7c3feb1, 2024-10-09)"
   xmlns:inkscape="http://www.inkscape.org/namespaces/inkscape"
   xmlns:sodipodi="http://sodipodi.sourceforge.net/DTD/sodipodi-0.dtd"
   xmlns="http://www.w3.org/2000/svg"
   xmlns:svg="http://www.w3.org/2000/svg"
   xmlns:rdf="http://www.w3.org/1999/02/22-rdf-syntax-ns#"
   xmlns:cc="http://creativecommons.org/ns#"
   xmlns:dc="http://purl.org/dc/elements/1.1/">
  <defs
     id="defs3" />
  <sodipodi:namedview
     id="namedview3"
     pagecolor="#ffffff"
     bordercolor="#000000"
     borderopacity="0.25"
     inkscape:showpageshadow="2"
     inkscape:pageopacity="0.0"
     inkscape:pagecheckerboard="0"
     inkscape:deskcolor="#d1d1d1"
     inkscape:zoom="0.84083333"
     inkscape:cx="128.444"
     inkscape:cy="149.85134"
     inkscape:window-width="2560"
     inkscape:window-height="1387"
     inkscape:window-x="0"
     inkscape:window-y="25"
     inkscape:window-maximized="0"
     inkscape:current-layer="svg3" />
  <title
     id="title1">svelte-vertical</title>
  <rect
     style="fill:#ffffc4;fill-opacity:1;stroke-width:1.38844"
     id="rect5"
     width="996.03564"
     height="299.10803"
     x="1.7839468"
     y="1.1892971"
     inkscape:label="backgroiund" />
  <path
     d="m 151.44957,238.21885 a 14.0218,14.0218 0 0 1 -7.9891,-2.2576 11.5714,11.5714 0 0 1 -4.6647,-6.178 l 4.8632,-1.7867 a 8.97,8.97 0 0 0 3.1759,3.8459 8.3658,8.3658 0 0 0 4.8132,1.4142 7.068,7.068 0 0 0 4.59,-1.3892 4.8185,4.8185 0 0 0 1.7122,-3.97 4.3412,4.3412 0 0 0 -0.4714,-2.01 6.0115,6.0115 0 0 0 -1.0668,-1.5138 7.2027,7.2027 0 0 0 -1.8362,-1.2158 q -1.2411,-0.6192 -2.0591,-0.9428 -0.819,-0.3216 -2.4066,-0.8684 -1.9858,-0.6943 -2.9775,-1.0912 a 22.4089,22.4089 0 0 1 -2.6051,-1.3153 9.6307,9.6307 0 0 1 -2.4316,-1.8357 8.9022,8.9022 0 0 1 -1.4637,-2.4071 8.6,8.6 0 0 1 2.3321,-9.7753 11.7841,11.7841 0 0 1 8.0886,-2.63 12.1677,12.1677 0 0 1 7.0213,1.8857 9.1177,9.1177 0 0 1 3.6969,5.0122 l -4.7637,1.5877 a 5.546,5.546 0 0 0 -2.3077,-2.5556 7.7507,7.7507 0 0 0 -4.0437,-0.9678 6.2321,6.2321 0 0 0 -3.8953,1.0918 3.6619,3.6619 0 0 0 -1.4143,3.0764 3.21,3.21 0 0 0 1.0913,2.3822 7.5015,7.5015 0 0 0 2.2826,1.5382 q 1.1916,0.4965 3.6229,1.34 1.4877,0.5468 2.2076,0.8188 0.7199,0.272 2.1091,0.9179 a 14.5435,14.5435 0 0 1 2.1336,1.1663 18.7071,18.7071 0 0 1 1.7367,1.4142 7.4076,7.4076 0 0 1 1.5138,1.8112 10.1257,10.1257 0 0 1 0.8928,2.2326 10.24,10.24 0 0 1 0.3725,2.8041 9.3524,9.3524 0 0 1 -3.325,7.6166 12.9325,12.9325 0 0 1 -8.5348,2.7543 z m 31.807,-0.5954 -11.9099,-34.7355 h 5.5581 l 7.89,24.2159 a 37.5389,37.5389 0 0 1 1.0919,3.97 37.2955,37.2955 0 0 1 1.0918,-3.97 l 7.7907,-24.2159 h 5.508 l -11.86,34.7356 z m 27.54,0 v -34.7355 h 21.5361 v 4.8632 h -16.3752 v 9.5277 h 10.5692 v 4.8632 h -10.5692 v 10.6186 h 17.4665 v 4.8632 z m 35.7774,0 v -34.7355 h 5.1612 v 29.7734 h 16.9706 v 4.9622 z m 41.5827,-29.7734 v 29.7735 h -5.1612 v -29.7735 h -9.8248 v -4.9621 h 24.8107 v 4.9621 z m 20.4934,29.7735 v -34.7356 h 21.5366 v 4.8632 h -16.3755 v 9.5277 h 10.5691 v 4.8632 h -10.5691 v 10.6186 h 17.4664 v 4.8632 z"
     style="fill:#4a4a55"
     id="path1" />
  <path
     d="M 191.8716,52.1065 C 175.5337,28.722 143.2642,21.7907 119.9333,36.6565 L 78.9574,62.7719 A 47.0092,47.0092 0 0 0 57.72,94.2591 a 49.5083,49.5083 0 0 0 4.882,31.7842 47.14,47.14 0 0 0 -7.032,17.5683 50.097,50.097 0 0 0 8.5576,37.8858 c 16.3419,23.3867 48.61,30.3149 71.9383,15.45 l 40.9759,-26.1158 A 47.001,47.001 0 0 0 198.2796,139.3444 49.5286,49.5286 0 0 0 193.4,107.56 47.13,47.13 0 0 0 200.4291,89.9924 50.0832,50.0832 0 0 0 191.8715,52.1067"
     style="fill:#ff3e00"
     id="path2" />
  <path
     d="m 115.93,183.6976 a 32.5485,32.5485 0 0 1 -34.934,-12.9491 30.1218,30.1218 0 0 1 -5.1475,-22.7834 28.582,28.582 0 0 1 0.9792,-3.8266 l 0.7717,-2.3529 2.0992,1.5418 a 52.8582,52.8582 0 0 0 16.029,8.0087 l 1.5229,0.4621 -0.14,1.52 a 9.1869,9.1869 0 0 0 1.6528,6.0925 9.8011,9.8011 0 0 0 10.5181,3.9039 9.0254,9.0254 0 0 0 2.5168,-1.1062 l 40.9769,-26.1128 a 8.5317,8.5317 0 0 0 3.85,-5.7043 9.1034,9.1034 0 0 0 -1.5515,-6.8672 9.8084,9.8084 0 0 0 -10.5221,-3.9061 9.02,9.02 0 0 0 -2.5138,1.1054 l -15.6366,9.9678 a 29.8952,29.8952 0 0 1 -8.3206,3.6539 A 32.5485,32.5485 0 0 1 83.146,121.3959 30.1208,30.1208 0 0 1 77.9985,98.6125 28.261,28.261 0 0 1 90.7712,79.68 l 40.9729,-26.115 a 29.8528,29.8528 0 0 1 8.3258,-3.6584 32.5482,32.5482 0 0 1 34.9341,12.949 30.1218,30.1218 0 0 1 5.1475,22.7834 28.9008,28.9008 0 0 1 -0.9792,3.8265 l -0.7717,2.353 -2.0982,-1.5385 a 52.8164,52.8164 0 0 0 -16.03,-8.0117 l -1.5229,-0.462 0.14,-1.52 a 9.2036,9.2036 0 0 0 -1.6528,-6.0924 9.8011,9.8011 0 0 0 -10.5178,-3.9039 9.0252,9.0252 0 0 0 -2.5168,1.1061 l -40.9769,26.1124 a 8.5183,8.5183 0 0 0 -3.847,5.7035 9.09,9.09 0 0 0 1.5485,6.8681 9.8085,9.8085 0 0 0 10.5221,3.9061 9.0586,9.0586 0 0 0 2.5168,-1.1062 L 129.6,102.9159 a 29.8159,29.8159 0 0 1 8.32,-3.6569 32.5484,32.5484 0 0 1 34.9341,12.9492 30.1207,30.1207 0 0 1 5.1475,22.7834 28.275,28.275 0 0 1 -12.7716,18.9355 l -40.9738,26.112 a 29.8538,29.8538 0 0 1 -8.3257,3.6585"
     style="fill:#ffffff"
     id="path3" />
  <text
     xml:space="preserve"
     style="font-style:normal;font-variant:normal;font-weight:bold;font-stretch:normal;font-size:93.3333px;font-family:'Courier New';-inkscape-font-specification:'Courier New, Bold';font-variant-ligatures:normal;font-variant-caps:normal;font-variant-numeric:normal;font-variant-east-asian:normal;text-align:center;writing-mode:lr-tb;direction:ltr;text-anchor:middle;fill:#0007ff;stroke-width:1.00157"
     x="837.56195"
     y="261.94254"
     id="text5"><tspan
       sodipodi:role="line"
       id="tspan5"
       x="837.56195"
       y="261.94254">Dev</tspan></text>
  <text
     xml:space="preserve"
     style="font-style:normal;font-variant:normal;font-weight:bold;font-stretch:normal;font-size:93.3333px;font-family:'Courier New';-inkscape-font-specification:'Courier New, Bold';font-variant-ligatures:normal;font-variant-caps:normal;font-variant-numeric:normal;font-variant-east-asian:normal;text-align:center;writing-mode:lr-tb;direction:ltr;text-anchor:middle;fill:#0007ff;stroke-width:1.00157"
     x="611.67706"
     y="183.06416"
     id="text5-6"><tspan
       sodipodi:role="line"
       id="tspan5-5"
       x="611.67706"
       y="183.06416">End</tspan></text>
  <text
     xml:space="preserve"
     style="font-style:normal;font-variant:normal;font-weight:bold;font-stretch:normal;font-size:93.3333px;font-family:'Courier New';-inkscape-font-specification:'Courier New, Bold';font-variant-ligatures:normal;font-variant-caps:normal;font-variant-numeric:normal;font-variant-east-asian:normal;text-align:center;writing-mode:lr-tb;direction:ltr;text-anchor:middle;fill:#0007ff;stroke-width:1.00157"
     x="402.40555"
     y="97.922745"
     id="text5-6-4"><tspan
       sodipodi:role="line"
       id="tspan5-5-7"
       x="402.40555"
       y="97.922745">Front</tspan></text>
  <metadata
     id="metadata5">
    <rdf:RDF>
      <cc:Work
         rdf:about="">
        <dc:title>svelte-vertical</dc:title>
      </cc:Work>
    </rdf:RDF>
  </metadata>
</svg>
